<svg width="368" height="73" viewBox="0 0 368 73" fill="none" xmlns="http://www.w3.org/2000/svg">
<path d="M55.8312 31.6017C54.808 32.6312 54.0244 33.8736 53.5362 35.2406C53.0481 36.6075 52.8674 38.0653 53.007 39.51L52.9584 39.4614C53.1019 41.162 52.8726 42.8734 52.2865 44.4763C51.7003 46.0791 50.7715 47.5347 49.5647 48.7415C48.3579 49.9483 46.9023 50.8771 45.2995 51.4633C43.6966 52.0495 41.9852 52.2788 40.2846 52.1352L40.3332 52.1838C38.299 51.9945 36.2558 52.4372 34.4824 53.4515C32.709 54.4659 31.2915 56.0025 30.4234 57.8519C29.5553 59.7013 29.2787 61.7735 29.6313 63.7859C29.984 65.7982 30.9488 67.6528 32.3941 69.0968C33.8393 70.5408 35.6948 71.5039 37.7075 71.8547C39.7202 72.2056 41.7921 71.9271 43.6407 71.0573C45.4894 70.1875 47.0247 68.7687 48.0375 66.9944C49.0502 65.22 49.4911 63.1765 49.2999 61.1424L49.3512 61.191C49.2076 59.4904 49.4369 57.779 50.0231 56.1761C50.6092 54.5733 51.5381 53.1177 52.7449 51.9109C53.9517 50.7041 55.4073 49.7753 57.0101 49.1891C58.6129 48.603 60.3244 48.3737 62.025 48.5172L61.9737 48.4686C63.6354 48.618 65.3079 48.3456 66.8363 47.6765C68.3647 47.0074 69.6995 45.9634 70.7169 44.6411C71.7343 43.3188 72.4015 41.7611 72.6566 40.1123C72.9117 38.4635 72.7465 36.7769 72.1762 35.209C71.606 33.6411 70.6492 32.2425 69.3945 31.1428C68.1397 30.0431 66.6277 29.2779 64.9986 28.9182C63.3694 28.5584 61.6758 28.6158 60.0746 29.0849C58.4735 29.554 57.0168 30.4197 55.8393 31.6017H55.8312Z" fill="var(--color-dark, #000)"/>
<path d="M35.9133 45.8172L35.862 45.7686C37.3074 45.9142 38.767 45.7368 40.1355 45.2492C41.5039 44.7616 42.7469 43.976 43.7745 42.9492C44.8021 41.9223 45.5886 40.68 46.0773 39.3119C46.5659 37.9438 46.7444 36.4843 46.5999 35.0388L46.6512 35.0874C46.5076 33.3868 46.7369 31.6754 47.3231 30.0725C47.9092 28.4697 48.8381 27.0141 50.0449 25.8073C51.2517 24.6005 52.7073 23.6717 54.3101 23.0855C55.9129 22.4993 57.6244 22.27 59.3249 22.4136L59.2736 22.365C61.308 22.556 63.3518 22.1149 65.1263 21.1017C66.9008 20.0885 68.3195 18.5525 69.1889 16.7034C70.0584 14.8542 70.3362 12.7819 69.9846 10.769C69.633 8.75616 68.669 6.90077 67.2241 5.4559C65.7793 4.01103 63.9239 3.04705 61.911 2.69543C59.8981 2.34381 57.8258 2.62167 55.9767 3.49112C54.1275 4.36057 52.5916 5.77928 51.5784 7.55373C50.5652 9.32818 50.124 11.372 50.3151 13.4064L50.2665 13.3551C50.4105 15.0558 50.1815 16.7674 49.5955 18.3705C49.0095 19.9735 48.0807 21.4293 46.8738 22.6362C45.6669 23.8431 44.2111 24.772 42.6081 25.358C41.005 25.944 39.2934 26.1729 37.5927 26.0289L37.6413 26.0802C36.1959 25.9346 34.7362 26.1119 33.3678 26.5996C31.9994 27.0872 30.7564 27.8728 29.7288 28.8996C28.7012 29.9265 27.9146 31.1688 27.426 32.5369C26.9373 33.9049 26.7588 35.3645 26.9034 36.81L26.8548 36.7614C26.9979 38.4619 26.7682 40.1731 26.1819 41.7757C25.5956 43.3783 24.6667 44.8337 23.46 46.0404C22.2534 47.2471 20.798 48.176 19.1953 48.7623C17.5927 49.3486 15.8815 49.5783 14.181 49.4352L14.2296 49.4838C12.1952 49.2927 10.1514 49.7339 8.37695 50.7471C6.6025 51.7603 5.1838 53.2963 4.31435 55.1454C3.4449 56.9946 3.16704 59.0669 3.51866 61.0798C3.87028 63.0926 4.83426 64.948 6.27913 66.3929C7.72399 67.8378 9.57939 68.8017 11.5923 69.1534C13.6051 69.505 15.6775 69.2271 17.5266 68.3577C19.3757 67.4882 20.9117 66.0695 21.9249 64.2951C22.9381 62.5206 23.3792 60.4768 23.1882 58.4424L23.2395 58.491C23.0959 56.7904 23.3252 55.079 23.9114 53.4761C24.4976 51.8733 25.4264 50.4177 26.6332 49.2109C27.84 48.0041 29.2956 47.0753 30.8984 46.4891C32.5012 45.9029 34.2127 45.6736 35.9133 45.8172V45.8172Z" fill="var(--color-dark, #000)"/>
<path d="M17.8179 40.3983C18.8413 39.369 19.6248 38.1265 20.1125 36.7595C20.6002 35.3925 20.7802 33.9346 20.6394 32.49L20.6907 32.5386C20.5471 30.8375 20.7765 29.1256 21.3629 27.5223C21.9494 25.9191 22.8788 24.4632 24.0862 23.2563C25.2935 22.0494 26.7498 21.1207 28.3533 20.5349C29.9568 19.9491 31.6689 19.7204 33.3699 19.8648L33.3186 19.8162C35.3523 20.0067 37.3953 19.5653 39.1689 18.5522C40.9425 17.539 42.3605 16.0035 43.2294 14.1549C44.0983 12.3063 44.3759 10.2348 44.0243 8.22264C43.6727 6.21053 42.709 4.35584 41.2647 2.9115C39.8204 1.46716 37.9657 0.50348 35.9536 0.151876C33.9414 -0.199729 31.8699 0.0778605 30.0213 0.946785C28.1727 1.81571 26.6372 3.23367 25.624 5.0073C24.6109 6.78093 24.1695 8.8239 24.36 10.8576L24.3114 10.809C24.455 12.5096 24.2257 14.221 23.6395 15.8239C23.0534 17.4267 22.1245 18.8823 20.9177 20.0891C19.7109 21.2959 18.2553 22.2247 16.6525 22.8109C15.0497 23.3971 13.3382 23.6264 11.6376 23.4828L11.6862 23.5314C10.0246 23.3824 8.35218 23.6552 6.82404 24.3246C5.29589 24.994 3.96143 26.0383 2.94431 27.3607C1.92719 28.6831 1.26033 30.2409 1.00552 31.8896C0.750704 33.5384 0.916184 35.2248 1.48662 36.7925C2.05707 38.3603 3.01401 39.7587 4.26878 40.8582C5.52355 41.9577 7.03555 42.7227 8.66466 43.0822C10.2938 43.4418 11.9873 43.3843 13.5883 42.9152C15.1893 42.446 16.646 41.5803 17.8233 40.3983H17.8179Z" fill="var(--color-dark, #000)"/>
<path d="M101.456 13.4685H109.475V52.4916H101.456V13.4685Z" fill="var(--color-dark, #000)"/>
<path d="M114.016 39.1293C114.005 36.3249 114.826 33.5804 116.376 31.2432C117.926 28.906 120.134 27.0814 122.722 26.0004C125.31 24.9194 128.16 24.6308 130.912 25.171C133.664 25.7112 136.193 27.056 138.18 29.035C140.167 31.014 141.522 33.5382 142.073 36.2878C142.625 39.0375 142.347 41.8889 141.277 44.4808C140.206 47.0728 138.39 49.2887 136.06 50.8479C133.729 52.4071 130.987 53.2395 128.183 53.2395C126.321 53.2607 124.474 52.9107 122.75 52.2098C121.025 51.5089 119.457 50.4712 118.138 49.1575C116.819 47.8438 115.775 46.2803 115.068 44.5584C114.36 42.8366 114.002 40.9909 114.016 39.1293V39.1293ZM134.331 39.1293C134.297 37.9205 133.908 36.7484 133.212 35.7595C132.516 34.7706 131.544 34.0088 130.418 33.5693C129.291 33.1299 128.06 33.0322 126.878 33.2886C125.697 33.545 124.617 34.1441 123.774 35.0109C122.93 35.8778 122.362 36.9739 122.138 38.1623C121.914 39.3507 122.046 40.5786 122.517 41.6926C122.987 42.8065 123.776 43.7571 124.783 44.4254C125.791 45.0937 126.974 45.4501 128.183 45.45C129.011 45.4721 129.835 45.3224 130.602 45.0103C131.37 44.6982 132.064 44.2304 132.642 43.6366C133.219 43.0427 133.668 42.3356 133.958 41.5598C134.249 40.7841 134.376 39.9565 134.331 39.1293V39.1293Z" fill="var(--color-dark, #000)"/>
<path d="M174.31 25.7643V51.1443C174.31 60.1245 167.306 63.9207 160.197 63.9207C157.694 64.108 155.188 63.6024 152.953 62.4594C150.718 61.3163 148.841 59.58 147.528 57.4407L154.37 53.4852C154.922 54.6003 155.801 55.5203 156.89 56.122C157.98 56.7237 159.226 56.9784 160.464 56.8521C161.255 56.9617 162.061 56.8921 162.821 56.6483C163.582 56.4045 164.278 55.9928 164.858 55.4437C165.438 54.8946 165.887 54.2222 166.172 53.4761C166.457 52.73 166.57 51.9294 166.504 51.1335V48.69C165.565 49.839 164.37 50.7518 163.014 51.3553C161.659 51.9587 160.18 52.236 158.698 52.1649C155.172 52.0537 151.827 50.5745 149.371 48.0405C146.916 45.5065 145.543 42.1164 145.543 38.588C145.543 35.0595 146.916 31.6695 149.371 29.1354C151.827 26.6014 155.172 25.1222 158.698 25.011C160.18 24.9399 161.659 25.2172 163.014 25.8207C164.37 26.4241 165.565 27.337 166.504 28.4859V25.7589L174.31 25.7643ZM166.507 38.592C166.561 37.2997 166.227 36.0208 165.547 34.9199C164.868 33.8191 163.875 32.9466 162.696 32.4149C161.517 31.8832 160.206 31.7165 158.931 31.9363C157.657 32.1561 156.477 32.7523 155.544 33.6482C154.611 34.5441 153.968 35.6987 153.696 36.9635C153.425 38.2282 153.539 39.5451 154.022 40.7448C154.506 41.9444 155.338 42.9719 156.41 43.695C157.482 44.418 158.747 44.8036 160.04 44.802C160.883 44.8608 161.728 44.7425 162.522 44.4547C163.316 44.1669 164.041 43.7159 164.651 43.1309C165.26 42.5459 165.74 41.8398 166.059 41.058C166.379 40.2763 166.531 39.4362 166.507 38.592V38.592Z" fill="var(--color-dark, #000)"/>
<path d="M178.851 39.1293C178.84 36.3249 179.661 33.5804 181.211 31.2432C182.761 28.906 184.969 27.0814 187.557 26.0004C190.145 24.9194 192.995 24.6308 195.747 25.171C198.499 25.7112 201.028 27.056 203.015 29.035C205.002 31.014 206.357 33.5382 206.908 36.2878C207.46 39.0375 207.182 41.8889 206.112 44.4808C205.041 47.0728 203.225 49.2887 200.895 50.8479C198.564 52.4071 195.822 53.2395 193.018 53.2395C191.156 53.2607 189.309 52.9107 187.585 52.2098C185.86 51.5089 184.292 50.4712 182.973 49.1575C181.654 47.8438 180.61 46.2803 179.903 44.5584C179.195 42.8366 178.837 40.9909 178.851 39.1293V39.1293ZM199.166 39.1293C199.132 37.9205 198.743 36.7484 198.047 35.7595C197.351 34.7706 196.379 34.0088 195.253 33.5693C194.126 33.1299 192.895 33.0322 191.713 33.2886C190.532 33.545 189.452 34.1441 188.609 35.0109C187.766 35.8778 187.197 36.9739 186.973 38.1623C186.749 39.3507 186.881 40.5786 187.352 41.6926C187.822 42.8065 188.611 43.7571 189.618 44.4254C190.626 45.0937 191.809 45.4501 193.018 45.45C193.846 45.4721 194.67 45.3224 195.437 45.0103C196.205 44.6982 196.899 44.2304 197.477 43.6366C198.054 43.0427 198.503 42.3356 198.793 41.5598C199.084 40.7841 199.211 39.9565 199.166 39.1293Z" fill="var(--color-dark, #000)"/>
<path d="M210.924 18.6012C210.924 17.6496 211.207 16.7194 211.735 15.9281C212.264 15.1369 213.015 14.5202 213.895 14.156C214.774 13.7919 215.741 13.6966 216.674 13.8822C217.608 14.0679 218.465 14.5261 219.138 15.199C219.811 15.8719 220.269 16.7292 220.455 17.6625C220.64 18.5959 220.545 19.5633 220.181 20.4424C219.817 21.3216 219.2 22.073 218.409 22.6017C217.618 23.1304 216.687 23.4126 215.736 23.4126C214.464 23.3999 213.247 22.889 212.348 21.9894C211.448 21.0898 210.937 19.8733 210.924 18.6012V18.6012ZM211.734 25.7643H219.756V52.4943H211.724L211.734 25.7643Z" fill="var(--color-dark, #000)"/>
<path d="M254.381 39.1293C254.473 40.8959 254.216 42.6633 253.623 44.33C253.03 45.9967 252.114 47.5298 250.927 48.8411C249.739 50.1524 248.304 51.2161 246.705 51.9709C245.105 52.7258 243.371 53.1569 241.604 53.2395C240.118 53.3206 238.633 53.07 237.256 52.5058C235.879 51.9417 234.644 51.0782 233.642 49.9779V63.1836H225.623V25.7643H233.642V28.2753C234.645 27.1758 235.879 26.313 237.256 25.7494C238.633 25.1857 240.119 24.9354 241.604 25.0164C243.372 25.0987 245.106 25.5296 246.706 26.2845C248.306 27.0394 249.741 28.1033 250.929 29.415C252.116 30.7266 253.032 32.2602 253.625 33.9274C254.217 35.5945 254.474 37.3624 254.381 39.1293V39.1293ZM246.362 39.1293C246.33 37.8783 245.931 36.6644 245.213 35.6394C244.495 34.6144 243.491 33.8239 242.326 33.3669C241.161 32.9098 239.887 32.8065 238.664 33.0699C237.44 33.3332 236.322 33.9516 235.448 34.8475C234.575 35.7434 233.985 36.8771 233.752 38.1067C233.52 39.3363 233.655 40.6071 234.141 41.7602C234.627 42.9132 235.443 43.8973 236.486 44.5891C237.528 45.281 238.752 45.6499 240.003 45.6498C240.862 45.688 241.72 45.5442 242.52 45.2279C243.319 44.9115 244.043 44.4297 244.643 43.814C245.244 43.1983 245.707 42.4627 246.003 41.6553C246.299 40.848 246.422 39.9872 246.362 39.1293V39.1293Z" fill="var(--color-dark, #000)"/>
<path d="M279.126 44.4726C279.126 50.6205 273.783 53.2395 268.01 53.2395C265.678 53.4508 263.336 52.9575 261.287 51.8235C259.238 50.6895 257.576 48.9668 256.517 46.8783L263.464 42.9228C263.745 43.8882 264.348 44.728 265.174 45.3019C265.999 45.8759 266.997 46.1492 268 46.0764C269.922 46.0764 270.886 45.4878 270.886 44.4213C270.886 41.4783 257.734 43.0308 257.734 33.7833C257.734 27.954 262.654 25.0164 268.213 25.0164C270.303 24.9503 272.372 25.446 274.205 26.4518C276.038 27.4576 277.568 28.9368 278.635 30.735L271.793 34.4232C271.493 33.7231 270.994 33.1267 270.357 32.7085C269.72 32.2903 268.975 32.0688 268.213 32.0715C266.822 32.0715 265.967 32.6115 265.967 33.5673C265.977 36.6156 279.126 34.5825 279.126 44.4726Z" fill="var(--color-dark, #000)"/>
<path d="M308.419 25.7643V52.4943H300.4V49.9806C299.475 51.0898 298.3 51.9637 296.971 52.5307C295.643 53.0977 294.199 53.3415 292.759 53.2422C287.359 53.2422 282.769 49.3947 282.769 42.1722V25.7643H290.788V40.9977C290.721 41.6343 290.793 42.2779 291 42.8837C291.207 43.4895 291.543 44.0429 291.986 44.5055C292.428 44.968 292.966 45.3286 293.562 45.5621C294.158 45.7957 294.798 45.8965 295.437 45.8577C298.377 45.8577 300.408 44.1486 300.408 40.3524V25.7724L308.419 25.7643Z" fill="var(--color-dark, #000)"/>
<path d="M354.4 36.081V52.4916H346.381V36.7749C346.381 34.1019 345.098 32.3928 342.533 32.3928C339.86 32.3928 338.362 34.2639 338.362 37.4175V52.4916H330.345V36.7749C330.345 34.1019 329.063 32.3928 326.495 32.3928C323.822 32.3928 322.326 34.2639 322.326 37.4175V52.4916H314.307V25.7616H322.326V28.2186C323.157 27.1286 324.249 26.2642 325.5 25.7043C326.751 25.1445 328.123 24.907 329.489 25.0137C330.862 24.9466 332.228 25.2361 333.455 25.8541C334.682 26.4721 335.728 27.3974 336.49 28.5399C337.379 27.3447 338.556 26.3943 339.912 25.7776C341.267 25.161 342.757 24.8981 344.242 25.0137C350.379 25.0164 354.4 29.3985 354.4 36.081Z" fill="var(--color-dark, #000)"/>
<path d="M361.182 25.5996C364.468 25.5996 367.133 22.9353 367.133 19.6488C367.133 16.3623 364.468 13.698 361.182 13.698C357.895 13.698 355.231 16.3623 355.231 19.6488C355.231 22.9353 357.895 25.5996 361.182 25.5996Z" fill="var(--color-dark, #000)"/>
</svg>
